<svg id="Layer_1" enable-background="new 0 0 512 512" height="512" viewBox="0 0 512 512" width="512" xmlns="http://www.w3.org/2000/svg"><g><path d="m497 512h-482c-8.284 0-15-6.716-15-15v-96.4c0-43.708 35.559-79.267 79.267-79.267h353.467c43.708 0 79.267 35.559 79.267 79.267v96.4c-.001 8.284-6.717 15-15.001 15z" fill="#be542f"/><path d="m512 497v-96.4c0-43.708-35.559-79.267-79.267-79.267h-176.733v190.667h241c8.284 0 15-6.716 15-15z" fill="#81341c"/><path d="m416.683 238.867c-8.284 0-15.016-6.716-15.016-15v-80.333c0-8.284 6.716-15 15-15h80.333c8.284 0 15 6.716 15 15 0 52.661-42.57 95.333-95.317 95.333z" fill="#00b489"/><path d="m95.333 238.867c-52.669 0-95.333-42.578-95.333-95.318 0-8.284 6.716-15.016 15-15.016h80.333c8.284 0 15 6.716 15 15v80.333c0 8.285-6.716 15.001-15 15.001z" fill="#00e58a"/><path d="m416.667 303.133h-321.334c-8.284 0-15-6.716-15-15v-176.733c0-61.524 49.777-111.4 111.4-111.4h128.533c61.524 0 111.4 49.776 111.4 111.4v176.733c.001 8.284-6.715 15-14.999 15z" fill="#a7ff8e"/><path d="m431.667 288.133v-176.733c0-61.624-49.876-111.4-111.4-111.4h-64.267v303.133h160.667c8.284 0 15-6.716 15-15z" fill="#00e58a"/><path d="m191.733 174.6c-8.284 0-15-6.716-15-15v-16.067c0-8.284 6.716-15 15-15s15 6.716 15 15v16.067c0 8.284-6.715 15-15 15z" fill="#37372d"/><path d="m320.267 174.6c-8.284 0-15-6.716-15-15v-16.067c0-8.284 6.716-15 15-15s15 6.716 15 15v16.067c0 8.284-6.716 15-15 15z" fill="#0f140a"/><path d="m207.8 303.133h-64.267c-8.284 0-15-6.716-15-15v-32.133c0-25.989 21.145-47.133 47.134-47.133 25.741 0 47.133 20.794 47.133 47.133v32.133c0 8.284-6.716 15-15 15z" fill="#fff"/><path d="m368.467 303.133h-64.267c-8.284 0-15-6.716-15-15v-32.133c0-25.989 21.144-47.133 47.133-47.133 25.744 0 47.134 20.796 47.134 47.133v32.133c0 8.284-6.716 15-15 15z" fill="#faf5f0"/><path d="m352.4 431.667h-192.8c-52.653 0-95.333-42.602-95.333-95.333v-48.2c0-8.284 6.716-15 15-15h353.467c8.284 0 15 6.716 15 15v48.2c-.001 52.647-42.595 95.333-95.334 95.333z" fill="#00e58a"/><path d="m447.733 336.333v-48.2c0-8.284-6.716-15-15-15h-176.733v158.533h96.4c52.739.001 95.333-42.685 95.333-95.333z" fill="#00b489"/><path d="m352.4 158.533h-192.8c-8.284 0-15-6.716-15-15s6.716-15 15-15h192.8c8.284 0 15 6.716 15 15s-6.715 15-15 15z" fill="#00b489"/><path d="m367.4 143.533c0-8.284-6.716-15-15-15h-96.4v30h96.4c8.285 0 15-6.716 15-15z" fill="#028c79"/></g></svg>